<svg width="20" height="20" viewBox="0 0 20 20" fill="none" xmlns="http://www.w3.org/2000/svg">
<path d="M10 0.00585938C4.47581 0.00585938 0 4.48167 0 10.0059C0 15.5301 4.47581 20.0059 10 20.0059C15.5242 20.0059 20 15.5301 20 10.0059C20 4.48167 15.5242 0.00585938 10 0.00585938ZM8.70968 2.05425V2.50989C8.70968 2.98973 8.20564 3.30021 7.77419 3.0865L6.80645 2.60263C7.40726 2.34457 8.04435 2.16312 8.70968 2.05425ZM10 16.9655V18.0704C5.55242 18.0704 1.93548 14.4534 1.93548 10.0059C1.93548 8.83247 2.19355 7.71957 2.64516 6.7115C3.04435 7.30425 3.66129 8.21957 4.04032 8.77199C4.25 9.07844 4.49194 9.3607 4.77016 9.60667L4.80242 9.63489C5.18548 9.98167 5.61694 10.2801 6.07661 10.5139C6.64113 10.7962 7.46371 11.2478 8.04435 11.5663C8.45564 11.7921 8.70968 12.2236 8.70968 12.6954V13.9857C8.70968 14.3284 8.84677 14.6551 9.08871 14.897C9.69355 15.5059 10.0685 16.4575 10 16.9655ZM11.7218 17.8809L12.4234 15.9897C12.504 15.768 12.5565 15.5381 12.6169 15.3083C12.6613 15.147 12.746 14.9978 12.8669 14.8768L13.3226 14.4212C13.6774 14.0704 13.875 13.5905 13.875 13.0905C13.875 12.7639 13.746 12.4494 13.5161 12.2196L12.9637 11.6671C12.7218 11.4252 12.3952 11.2881 12.0524 11.2881H9.35484C8.97581 11.0986 8.4879 9.9978 8.06452 9.9978C7.64113 9.9978 7.22177 9.89699 6.84274 9.70747L6.39516 9.4857C6.23387 9.40505 6.12903 9.2357 6.12903 9.05425C6.12903 8.8486 6.2621 8.66312 6.45968 8.5986L7.71774 8.17925C7.93548 8.10667 8.17339 8.15505 8.34274 8.30425L8.71774 8.63086C8.77822 8.68328 8.85081 8.7115 8.92742 8.7115H9.15323C9.39516 8.7115 9.54839 8.45747 9.44355 8.24376L8.81452 6.9857C8.75 6.8607 8.77822 6.70747 8.87903 6.6107L9.27823 6.2236C9.33871 6.16312 9.41935 6.13086 9.50403 6.13086H9.86693C9.95161 6.13086 10.0363 6.0986 10.0968 6.03812L10.4194 5.71554C10.5444 5.59054 10.5444 5.38489 10.4194 5.25989L10.2298 5.07038C10.1048 4.94538 10.1048 4.73973 10.2298 4.61473L10.6452 4.19941L10.8347 4.00989C11.0847 3.75989 11.0847 3.3486 10.8347 3.0986L9.69355 1.95747C9.79435 1.95344 9.89516 1.94134 10 1.94134C13.1532 1.94134 15.879 3.76392 17.2056 6.40505L16.6815 6.66715C16.5323 6.74376 16.4032 6.85667 16.3105 6.99376L15.5202 8.17925C15.3024 8.50586 15.3024 8.92925 15.5202 9.25183L16.246 10.3405C16.379 10.5421 16.5847 10.6833 16.8145 10.7438L17.9919 11.0381C17.5565 14.4252 15.0121 17.1631 11.7218 17.8809Z" fill="#222222"/>
</svg>
